<?xml version="1.0" standalone="no"?>
<!DOCTYPE svg PUBLIC "-//W3C//DTD SVG 20010904//EN"
 "http://www.w3.org/TR/2001/REC-SVG-20010904/DTD/svg10.dtd">
<svg version="1.0" xmlns="http://www.w3.org/2000/svg"
 width="459.000000pt" height="459.000000pt" viewBox="0 0 459.000000 459.000000"
 preserveAspectRatio="xMidYMid meet">
<metadata>
Created by potrace 1.11, written by Peter Selinger 2001-2013
</metadata>
<g transform="translate(0.000000,459.000000) scale(0.100000,-0.100000)"
fill="#000000" stroke="none">
<path d="M2139 4566 c-2 -2 -38 -6 -79 -10 -79 -6 -89 -8 -215 -32 -359 -70
-705 -235 -1004 -479 -65 -53 -219 -207 -280 -279 -124 -148 -200 -262 -295
-448 -104 -204 -180 -432 -212 -638 -3 -19 -7 -41 -9 -48 -26 -75 -26 -586 -1
-664 3 -7 7 -33 10 -58 7 -66 53 -250 88 -350 205 -588 617 -1049 1173 -1316
115 -55 277 -119 328 -129 9 -2 21 -6 25 -9 5 -3 19 -7 33 -10 13 -3 35 -8 49
-11 88 -21 206 -41 307 -52 65 -8 394 -10 458 -3 182 18 467 85 582 136 17 8
34 14 38 14 9 0 87 36 185 84 104 52 245 139 325 200 33 25 65 49 70 53 45 34
161 141 216 198 188 196 346 431 449 670 5 11 18 40 28 65 40 93 98 288 118
400 3 14 9 50 15 80 5 30 13 84 17 120 9 87 9 420 -1 495 -39 300 -108 531
-235 780 -172 340 -434 636 -759 858 -69 48 -247 151 -263 152 -3 1 -24 11
-48 23 -92 49 -324 127 -467 158 -56 13 -119 24 -162 30 -26 3 -57 8 -68 11
-25 5 -410 14 -416 9z"/>
</g>
</svg>
