<svg width="24" height="23" xmlns="http://www.w3.org/2000/svg" xmlns:xlink="http://www.w3.org/1999/xlink" overflow="hidden"><defs><clipPath id="clip0"><rect x="1083" y="38" width="24" height="23"/></clipPath></defs><g clip-path="url(#clip0)" transform="translate(-1083 -38)"><path d="M1102.1 53.6327C1101.48 53.0448 1100.47 53.0715 1099.72 53.6327L1098.54 52.5104C1101.59 49.3572 1101.4 44.4671 1098.1 41.5545 1094.8 38.6418 1089.7 38.8556 1086.65 42.0087 1083.6 45.1619 1083.83 50.052 1087.1 52.9646 1090.23 55.7436 1095.07 55.7169 1098.18 52.9111L1099.36 54.0334C1099.1 54.3274 1098.96 54.7015 1098.91 55.0756 1098.85 55.5298 1099.02 55.9842 1099.36 56.3048L1103.3 60.0725C1103.61 60.3397 1104 60.5001 1104.42 60.5001 1104.98 60.5001 1105.48 60.2863 1105.87 59.9122 1106.24 59.5915 1106.46 59.1373 1106.49 58.6563 1106.55 58.202 1106.38 57.7478 1106.04 57.4271L1102.1 53.6327ZM1087.3 52.35C1084.36 49.5442 1084.36 44.9749 1087.3 42.1424 1090.23 39.3099 1095.02 39.3366 1097.98 42.1424 1100.95 44.9481 1100.92 49.5175 1097.98 52.35 1096.56 53.7128 1094.66 54.461 1092.64 54.461 1090.65 54.461 1088.72 53.7128 1087.3 52.35ZM1105.45 59.4846C1104.92 59.9924 1104.11 60.0725 1103.66 59.645L1099.75 55.9039C1099.52 55.6902 1099.44 55.3963 1099.47 55.1023 1099.5 54.755 1099.66 54.4343 1099.94 54.1938 1100.22 53.9265 1100.61 53.7662 1101.01 53.7395 1101.29 53.7395 1101.54 53.8197 1101.73 54.0068L1105.65 57.7745C1105.87 57.9882 1105.96 58.2822 1105.93 58.5761 1105.87 58.9235 1105.73 59.2442 1105.45 59.4846 1105.45 59.4846 1105.45 59.4846 1105.45 59.4846Z" stroke="#FFFFFF" stroke-width="0.270866" stroke-miterlimit="8" fill="#FFFFFF" fill-rule="evenodd"/></g></svg>