<svg width="20" height="20" xmlns="http://www.w3.org/2000/svg" xmlns:xlink="http://www.w3.org/1999/xlink" overflow="hidden"><defs><clipPath id="clip0"><rect x="804" y="39" width="20" height="20"/></clipPath></defs><g clip-path="url(#clip0)" transform="translate(-804 -39)"><path d="M808.178 53.1279 807.481 55.1128 809.071 56.6212 811.164 55.9596C811.719 56.2541 812.309 56.4851 812.922 56.6477L813.898 58.5002 816.13 58.5002 817.107 56.6477C817.712 56.4898 818.293 56.2585 818.836 55.9596L820.929 56.6212 822.519 55.1128 821.822 53.1279C822.132 52.6013 822.376 52.0416 822.547 51.4607L824.5 50.5344 824.5 48.4173 822.519 47.5175C822.353 46.9434 822.109 46.3919 821.794 45.8767L822.491 43.892 820.901 42.3835 818.809 43.0451C818.253 42.7506 817.663 42.5196 817.051 42.3571L816.102 40.5001 813.87 40.5001 812.894 42.3525C812.288 42.5104 811.707 42.7417 811.164 43.0406L809.071 42.3791 807.481 43.8875 808.178 45.8722C807.868 46.3989 807.625 46.9585 807.453 47.5395L805.5 48.4393 805.5 50.5564 807.453 51.4827C807.619 52.0583 807.863 52.6113 808.178 53.1279ZM806.058 48.7738 807.697 48.0185 807.925 47.9126 807.992 47.6808C808.152 47.1401 808.379 46.619 808.668 46.1287L808.785 45.9259 808.708 45.7064 808.119 44.0314 809.222 42.9851 810.988 43.5435 811.226 43.6189 811.444 43.4992C811.945 43.2232 812.482 43.0098 813.041 42.8641L813.281 42.8019 813.393 42.5902 814.216 41.0293 815.753 41.0293 816.549 42.5854 816.66 42.8014 816.905 42.8646C817.475 43.0168 818.023 43.2321 818.54 43.5061L818.754 43.6178 818.986 43.5445 820.751 42.9861 821.854 44.0325 821.265 45.7074 821.186 45.9337 821.312 46.1398C821.603 46.6154 821.828 47.1247 821.982 47.6551L822.049 47.8888 822.279 47.9934 823.942 48.7495 823.942 50.2068 822.297 50.987 822.074 51.0928 822.009 51.321C821.848 51.8618 821.622 52.3827 821.333 52.873L821.215 53.0758 821.292 53.2955 821.881 54.9703 820.778 56.0168 819.013 55.4583 818.774 55.3829 818.557 55.5025C818.055 55.7786 817.518 55.9921 816.959 56.1376L816.719 56.1998 816.607 56.4116 815.785 57.973 814.243 57.973 813.421 56.4116 813.31 56.1998 813.069 56.1376C812.499 55.9855 811.95 55.7702 811.433 55.4962L811.219 55.3846 810.988 55.4578 809.223 56.0162 808.12 54.9698 808.709 53.2955 808.788 53.0691 808.662 52.8628C808.371 52.3871 808.146 51.8778 807.992 51.3474L807.927 51.1193 807.703 51.0134 806.058 50.2333Z" stroke="#FFFFFF" stroke-width="0.270866" stroke-miterlimit="8" fill="#FFFFFF" fill-rule="evenodd"/><path d="M814.5 52.5001C816.157 52.5001 817.5 51.1569 817.5 49.5001 817.5 47.8432 816.157 46.5001 814.5 46.5001 812.843 46.5001 811.5 47.8432 811.5 49.5001 811.505 51.1547 812.845 52.4948 814.5 52.5001ZM814.5 46.9983C815.881 46.9983 817 48.1176 817 49.4983 817 50.879 815.881 51.9983 814.5 51.9983 813.119 51.9983 812 50.879 812 49.4983 812.002 48.1183 813.12 47.0001 814.5 46.9983Z" stroke="#FFFFFF" stroke-width="0.270866" stroke-miterlimit="8" fill="#FFFFFF" fill-rule="evenodd"/></g></svg>