<svg width="19" height="21" xmlns="http://www.w3.org/2000/svg" xmlns:xlink="http://www.w3.org/1999/xlink" overflow="hidden"><defs><clipPath id="clip0"><rect x="1207" y="39" width="19" height="21"/></clipPath></defs><g clip-path="url(#clip0)" transform="translate(-1207 -39)"><path d="M1217 41.0626C1219.17 41.0626 1220.94 42.8255 1220.94 45.0001 1220.94 47.1746 1219.17 48.9376 1217 48.9376 1214.83 48.9376 1213.06 47.1746 1213.06 45.0001 1213.06 42.8263 1214.83 41.0647 1217 41.0626M1217 40.5001C1214.51 40.5001 1212.5 42.5148 1212.5 45.0001 1212.5 47.4853 1214.51 49.5001 1217 49.5001 1219.49 49.5001 1221.5 47.4853 1221.5 45.0001 1221.5 42.5148 1219.49 40.5001 1217 40.5001Z" stroke="#FFFFFF" stroke-width="0.270866" stroke-miterlimit="8" fill="#FFFFFF" fill-rule="evenodd"/><path d="M1225.5 59.5001 1224.94 59.5001 1224.94 55.1407C1224.92 54.5433 1224.64 53.9836 1224.17 53.6166 1222.94 52.6701 1221.53 51.9831 1220.02 51.597 1218.88 51.2461 1217.69 51.066 1216.5 51.0626 1215.31 51.0832 1214.12 51.263 1212.98 51.597 1211.49 52.0334 1210.08 52.718 1208.82 53.6219 1208.35 53.9894 1208.07 54.5467 1208.06 55.1407L1208.06 59.5001 1207.5 59.5001 1207.5 55.1407C1207.51 54.3725 1207.87 53.6513 1208.48 53.1772 1209.8 52.2301 1211.27 51.5129 1212.83 51.0561 1214.02 50.708 1215.26 50.5211 1216.5 50.5001 1217.75 50.5032 1218.99 50.6907 1220.18 51.0567 1221.76 51.4632 1223.23 52.1851 1224.52 53.1789 1225.13 53.6531 1225.49 54.3735 1225.5 55.1407Z" stroke="#FFFFFF" stroke-width="0.270866" stroke-miterlimit="8" fill="#FFFFFF" fill-rule="evenodd"/></g></svg>