<svg width="24" height="23" xmlns="http://www.w3.org/2000/svg" xmlns:xlink="http://www.w3.org/1999/xlink" overflow="hidden"><defs><clipPath id="clip0"><rect x="658" y="40" width="24" height="23"/></clipPath></defs><g clip-path="url(#clip0)" transform="translate(-658 -40)"><path d="M681.052 59.4255 677.113 55.6521C676.51 55.0744 675.492 55.0915 674.738 55.6521L673.572 54.5368C676.617 51.3908 676.419 46.4791 673.13 43.5666 669.841 40.6539 664.706 40.8431 661.661 43.9892 658.615 47.1352 658.813 52.0469 662.102 54.9594 665.232 57.7304 670.069 57.7126 673.176 54.9184L674.341 56.0335C674.092 56.3332 673.938 56.6958 673.9 57.0772 673.848 57.527 674.009 57.9754 674.339 58.2992L678.276 62.0711C678.576 62.3522 678.98 62.5067 679.4 62.4998 679.951 62.4908 680.476 62.2742 680.861 61.8972 681.218 61.5646 681.441 61.1224 681.49 60.6482 681.543 60.1983 681.382 59.7496 681.052 59.4255ZM662.285 44.1212C664.035 42.443 666.534 41.692 668.973 42.1114 670.024 42.2845 671.022 42.6756 671.898 43.257 673.964 44.6064 675.198 46.8452 675.195 49.2374L672.253 49.2374C672.171 49.2374 672.094 49.2716 672.04 49.3309L670.709 50.8165C670.708 50.8178 670.706 50.8182 670.705 50.8173 670.705 50.8171 670.704 50.8168 670.704 50.8165L669.722 47.2925C669.682 47.1494 669.529 47.0644 669.379 47.1026 669.292 47.1247 669.222 47.1854 669.19 47.2656L667.142 52.3303C667.141 52.3317 667.14 52.3325 667.138 52.332 667.138 52.3318 667.137 52.3312 667.137 52.3303L665.804 45.437C665.776 45.2915 665.63 45.1953 665.478 45.2223 665.378 45.24 665.295 45.3085 665.263 45.401L663.926 49.2374 660.073 49.2374C660.069 47.3184 660.865 45.4773 662.285 44.1212ZM663.448 55.2689C661.502 54.0313 660.264 52.0023 660.096 49.7733L664.128 49.7733C664.249 49.7733 664.356 49.6995 664.394 49.59L665.448 46.5665C665.448 46.5651 665.45 46.5643 665.451 46.5648 665.452 46.565 665.453 46.5657 665.453 46.5665L666.768 53.366C666.79 53.484 666.892 53.5731 667.017 53.5842 667.026 53.5842 667.035 53.5842 667.043 53.5842 667.159 53.5842 667.263 53.5161 667.304 53.413L669.399 48.2319C669.4 48.2305 669.401 48.2298 669.403 48.2302 669.404 48.2305 669.404 48.2311 669.404 48.2319L670.301 51.4476C670.341 51.5906 670.495 51.6755 670.644 51.6373 670.699 51.6233 670.747 51.5939 670.784 51.553L672.382 49.7733 675.172 49.7733C674.866 53.7571 671.242 56.7497 667.077 56.4575 666.819 56.4394 666.563 56.4087 666.308 56.3655 665.284 56.1992 664.308 55.8253 663.448 55.2689ZM680.467 61.5167C679.921 62.0374 679.116 62.1164 678.674 61.6925L674.736 57.9197C674.523 57.7072 674.421 57.4148 674.458 57.1227 674.496 56.7746 674.661 56.4503 674.924 56.2071 675.47 55.6862 676.274 55.6071 676.717 56.0313L680.655 59.8041C680.868 60.0166 680.97 60.309 680.933 60.6011 680.895 60.9493 680.73 61.2735 680.467 61.5167Z" stroke="#FFFFFF" stroke-width="0.270866" stroke-miterlimit="8" fill="#FFFFFF" fill-rule="evenodd"/></g></svg>