<svg width="21" height="20" xmlns="http://www.w3.org/2000/svg" xmlns:xlink="http://www.w3.org/1999/xlink" overflow="hidden"><defs><clipPath id="clip0"><rect x="371" y="40" width="21" height="20"/></clipPath></defs><g clip-path="url(#clip0)" transform="translate(-371 -40)"><path d="M373.059 41.5001 372.5 41.5001 372.5 59.5001 391.5 59.5001 391.5 58.9706 373.059 58.9706 373.059 41.5001Z" stroke="#FFFFFF" stroke-width="0.270866" stroke-miterlimit="8" fill="#FFFFFF" fill-rule="evenodd"/><path d="M376.619 56.5002C377.236 56.5013 377.736 56.0067 377.738 55.3951 377.738 55.0458 377.573 54.7165 377.291 54.507L379.72 47.0584C379.881 47.0545 380.04 47.0159 380.185 46.9453L384.475 50.1884C384.36 50.7909 384.759 51.3721 385.366 51.4863 385.973 51.6006 386.559 51.2046 386.674 50.602 386.688 50.5329 386.694 50.4625 386.694 50.3922 386.693 50.0547 386.537 49.7362 386.269 49.5276L388.295 43.7211C388.321 43.723 388.346 43.729 388.373 43.729 388.993 43.7311 389.498 43.2339 389.5 42.6184 389.502 42.0029 389.001 41.5023 388.381 41.5001 387.76 41.4979 387.256 41.9951 387.254 42.6106 387.252 42.9885 387.444 43.3414 387.763 43.5479L385.756 49.2996C385.696 49.2888 385.636 49.2828 385.574 49.2817 385.246 49.2825 384.935 49.4275 384.724 49.6777L380.621 46.5766C380.974 46.0716 380.847 45.3785 380.338 45.0286 379.829 44.6786 379.131 44.8044 378.778 45.3094 378.425 45.8144 378.552 46.5075 379.061 46.8574 379.098 46.8828 379.136 46.9059 379.176 46.9267L376.773 54.2943C376.162 54.209 375.597 54.6312 375.511 55.2372 375.425 55.8434 375.851 56.4039 376.462 56.4893 376.514 56.4966 376.567 56.5003 376.619 56.5002Z" stroke="#FFFFFF" stroke-width="0.270866" stroke-miterlimit="8" fill="#FFFFFF" fill-rule="evenodd"/></g></svg>