<svg width="17" height="23" xmlns="http://www.w3.org/2000/svg" xmlns:xlink="http://www.w3.org/1999/xlink" overflow="hidden"><defs><clipPath id="clip0"><rect x="545" y="39" width="17" height="23"/></clipPath></defs><g clip-path="url(#clip0)" transform="translate(-545 -39)"><path d="M561.5 58.9616 561.5 42.0385C561.5 40.3896 557.378 39.5001 553.5 39.5001 549.622 39.5001 545.5 40.3896 545.5 42.0385L545.5 58.9616C545.5 60.6105 549.622 61.5001 553.5 61.5001 557.378 61.5001 561.5 60.6105 561.5 58.9616ZM553.5 40.0642C557.763 40.0642 560.948 41.1077 560.948 42.0385 560.948 42.9692 557.763 44.0129 553.5 44.0129 549.237 44.0129 546.052 42.9692 546.052 42.0385 546.052 41.1077 549.237 40.0642 553.5 40.0642ZM546.052 43.0144C547.301 44.0354 550.475 44.577 553.5 44.577 556.525 44.577 559.699 44.0354 560.948 43.0144L560.948 47.6795C560.948 48.6104 557.763 49.6539 553.5 49.6539 549.237 49.6539 546.052 48.6104 546.052 47.6795ZM546.052 48.6555C547.301 49.6765 550.475 50.218 553.5 50.218 556.525 50.218 559.699 49.6765 560.948 48.6555L560.948 53.3206C560.948 54.2514 557.763 55.2949 553.5 55.2949 549.237 55.2949 546.052 54.2514 546.052 53.3206ZM546.052 58.9616 546.052 54.2965C547.301 55.3175 550.475 55.859 553.5 55.859 556.525 55.859 559.699 55.3175 560.948 54.2965L560.948 58.9616C560.948 59.8924 557.763 60.936 553.5 60.936 549.237 60.936 546.052 59.8924 546.052 58.9616Z" stroke="#FFFFFF" stroke-width="0.270866" stroke-miterlimit="8" fill="#FFFFFF" fill-rule="evenodd"/><path d="M559.5 47.0001C559.5 47.2761 559.276 47.5001 559 47.5001 558.724 47.5001 558.5 47.2761 558.5 47.0001 558.5 46.724 558.724 46.5001 559 46.5001 559.276 46.5001 559.5 46.724 559.5 47.0001Z" stroke="#FFFFFF" stroke-width="0.270866" stroke-miterlimit="8" fill="#FFFFFF" fill-rule="evenodd"/><path d="M559.5 53.0001C559.5 53.2761 559.276 53.5001 559 53.5001 558.724 53.5001 558.5 53.2761 558.5 53.0001 558.5 52.724 558.724 52.5001 559 52.5001 559.276 52.5001 559.5 52.724 559.5 53.0001Z" stroke="#FFFFFF" stroke-width="0.270866" stroke-miterlimit="8" fill="#FFFFFF" fill-rule="evenodd"/><path d="M559.5 58.0001C559.5 58.2761 559.276 58.5001 559 58.5001 558.724 58.5001 558.5 58.2761 558.5 58.0001 558.5 57.724 558.724 57.5001 559 57.5001 559.276 57.5001 559.5 57.724 559.5 58.0001Z" stroke="#FFFFFF" stroke-width="0.270866" stroke-miterlimit="8" fill="#FFFFFF" fill-rule="evenodd"/></g></svg>