<svg width="21" height="23" xmlns="http://www.w3.org/2000/svg" xmlns:xlink="http://www.w3.org/1999/xlink" overflow="hidden"><defs><clipPath id="clip0"><rect x="1145" y="38" width="21" height="23"/></clipPath></defs><g clip-path="url(#clip0)" transform="translate(-1145 -38)"><path d="M1164.23 54.0829C1162.97 52.4763 1161.25 50.2753 1161.25 46.2833 1161.25 44.4101 1160.15 42.6625 1158.51 41.9429 1158.31 41.8496 1158.11 41.7726 1157.9 41.713 1157.92 41.6033 1157.93 41.4922 1157.93 41.3808 1157.93 40.346 1157.07 39.504 1156.01 39.5001 1154.94 39.4962 1154.08 40.3319 1154.07 41.3666 1154.07 41.4803 1154.08 41.5936 1154.1 41.7055 1153.9 41.7641 1153.7 41.841 1153.51 41.9351 1151.86 42.6619 1150.75 44.4101 1150.75 46.2833 1150.75 50.2761 1149.03 52.4763 1147.77 54.0829 1147.06 54.9947 1146.5 55.7148 1146.5 56.4747 1146.5 58.5791 1150.73 60.3897 1155.82 60.5002L1156.18 60.5002C1161.27 60.3897 1165.5 58.5791 1165.5 56.4747 1165.5 55.7148 1164.94 54.9947 1164.23 54.0829ZM1156 40.0455C1156.76 40.0465 1157.37 40.6437 1157.37 41.3808 1157.37 41.4472 1157.37 41.5135 1157.36 41.5792 1157.16 41.5383 1156.94 41.5003 1156.69 41.4715 1156.12 41.404 1155.53 41.4159 1154.96 41.5067 1154.85 41.5254 1154.74 41.5455 1154.64 41.5668 1154.63 41.505 1154.63 41.4427 1154.63 41.3803 1154.63 40.6437 1155.24 40.0469 1156 40.0455ZM1148.21 54.4084C1149.44 52.8348 1151.3 50.4572 1151.3 46.2833 1151.28 44.6421 1152.24 43.137 1153.75 42.4159 1154.16 42.2277 1154.6 42.1006 1155.05 42.039 1155.35 41.9912 1155.65 41.9674 1155.94 41.9676 1156.17 41.9678 1156.4 41.9808 1156.63 42.0067 1157.19 42.0556 1157.75 42.1971 1158.27 42.4253 1159.77 43.1487 1160.72 44.6492 1160.7 46.2833 1160.7 50.4572 1162.56 52.8348 1163.78 54.4084 1164.15 54.8423 1164.47 55.3069 1164.75 55.7968 1164.76 55.8041 1164.76 55.8055 1164.75 55.7996 1163.29 54.4132 1159.55 53.5461 1156 53.5461 1152.45 53.5461 1148.71 54.4129 1147.25 55.7993 1147.24 55.8053 1147.24 55.8041 1147.25 55.7963 1147.53 55.3066 1147.85 54.8422 1148.21 54.4084ZM1157.13 54.9109C1157.3 55.5169 1156.93 56.1446 1156.31 56.3131 1156.1 56.3686 1155.89 56.3686 1155.68 56.3132 1155.29 56.2091 1154.98 55.9103 1154.87 55.5276 1154.7 54.9219 1155.06 54.2939 1155.69 54.1251 1155.89 54.0694 1156.11 54.0693 1156.32 54.1248 1156.71 54.229 1157.02 54.5282 1157.13 54.9109ZM1156 59.9647C1151.4 59.9001 1147.86 58.4359 1147.18 56.9784 1147.31 55.7178 1150.41 54.3539 1154.7 54.1203 1154.08 54.8152 1154.15 55.8722 1154.86 56.4813 1155.58 57.0904 1156.67 57.0207 1157.29 56.3258 1157.86 55.6947 1157.86 54.7514 1157.29 54.1203 1161.58 54.3539 1164.68 55.7178 1164.82 56.9784 1164.14 58.4359 1160.6 59.9001 1156 59.9647Z" stroke="#FFFFFF" stroke-width="0.270866" stroke-miterlimit="8" fill="#FFFFFF" fill-rule="evenodd"/></g></svg>