<svg width="28" height="22" xmlns="http://www.w3.org/2000/svg" xmlns:xlink="http://www.w3.org/1999/xlink" overflow="hidden"><defs><clipPath id="clip0"><rect x="571" y="237" width="28" height="22"/></clipPath></defs><g clip-path="url(#clip0)" transform="translate(-571 -237)"><path d="M593.851 245.612C593.635 244.213 592.903 242.96 591.814 242.126 590.685 241.294 589.281 240.984 587.929 241.269 586.864 239.548 585.045 238.507 583.092 238.5 582.644 238.5 582.198 238.556 581.763 238.666 579.449 239.299 577.717 241.324 577.362 243.811 575.831 243.867 574.405 244.643 573.478 245.925 572.393 247.529 572.196 249.618 572.961 251.414 573.74 253.181 575.378 254.355 577.226 254.472L579.209 254.472 582.551 254.48 582.551 253.909 579.209 253.9 577.243 253.9C575.603 253.79 574.152 252.748 573.457 251.182 572.777 249.572 572.951 247.705 573.915 246.265 574.747 245.126 576.017 244.437 577.381 244.382L577.832 244.366 577.899 243.896C578.216 241.636 579.788 239.796 581.89 239.223 582.284 239.122 582.687 239.072 583.092 239.071 584.863 239.072 586.512 240.017 587.474 241.58L587.675 241.903 588.036 241.827C589.239 241.574 590.488 241.849 591.495 242.587 592.466 243.335 593.119 244.454 593.315 245.704L593.378 246.115 593.77 246.176C595.796 246.476 597.207 248.447 596.922 250.577 596.67 252.457 595.167 253.873 593.362 253.929L590.483 253.929 587.44 253.921 587.44 254.492 590.483 254.5 593.362 254.5C595.707 254.437 597.559 252.386 597.499 249.92 597.445 247.74 595.904 245.919 593.851 245.612Z" stroke="#FFC74D" stroke-miterlimit="8" fill="#FFC74D" fill-rule="evenodd"/><path d="M585.287 258.5 585.287 247.565C585.287 247.563 585.288 247.562 585.289 247.562 585.29 247.562 585.291 247.562 585.291 247.563L589.095 251.233 589.5 250.842 585 246.5 580.5 250.842 580.905 251.233 584.709 247.563C584.71 247.562 584.712 247.562 584.713 247.563 584.713 247.563 584.714 247.564 584.714 247.565L584.714 258.5Z" stroke="#FFC74D" stroke-miterlimit="8" fill="#FFC74D" fill-rule="evenodd"/></g></svg>